<svg width="211px" height="217px" viewBox="0 0 211 217" version="1.1" xmlns="http://www.w3.org/2000/svg" xmlns:xlink="http://www.w3.org/1999/xlink">
    <!-- Generator: Sketch 47 (45396) - http://www.bohemiancoding.com/sketch -->
    <desc>Created with Sketch.</desc>
    <defs>
        <filter x="-15.4%" y="-134.6%" width="130.8%" height="435.3%" filterUnits="objectBoundingBox" id="filter-1">
            <feOffset dx="0" dy="20" in="SourceAlpha" result="shadowOffsetOuter1"></feOffset>
            <feGaussianBlur stdDeviation="50" in="shadowOffsetOuter1" result="shadowBlurOuter1"></feGaussianBlur>
            <feColorMatrix values="0 0 0 0 0   0 0 0 0 0   0 0 0 0 0  0 0 0 0.08 0" type="matrix" in="shadowBlurOuter1" result="shadowMatrixOuter1"></feColorMatrix>
            <feMerge>
                <feMergeNode in="shadowMatrixOuter1"></feMergeNode>
                <feMergeNode in="SourceGraphic"></feMergeNode>
            </feMerge>
        </filter>
    </defs>
    <g id="avsc" stroke="none" stroke-width="1" fill="none" fill-rule="evenodd">
        <g id="traffic" transform="translate(-60.000000, -158.000000)" fill="#BDC1C9">
            <g id="menu" filter="url(#filter-1)" transform="translate(-142.000000, 200.000000)">
                <g id="reusable-shopping-bag" transform="translate(290.000000, 25.000000)">
                    <g id="Capa_1">
                        <path d="M34.7263116,41.3332138 L32.6006425,8.92047613 C32.5538827,8.20747163 31.9619545,7.65308134 31.2474311,7.65308134 L25.3140446,7.65308134 L25.3140446,6.78070319 C25.3140446,3.0418777 22.2721669,0 18.5333414,0 L16.201322,0 C12.4624965,0 9.42061876,3.0418777 9.42061876,6.78070319 L9.42061876,7.65308134 L3.48723225,7.65308134 C2.77270887,7.65308134 2.1807806,8.20747163 2.13402087,8.92047613 L0.00292722852,41.4120869 C-0.0217002855,41.7862733 0.109899602,42.1539501 0.366372919,42.4276735 C0.622846237,42.7016139 0.981084348,42.8567564 1.35624709,42.8567564 L33.3784162,42.8567564 L33.3805861,42.8567564 C34.1295012,42.8567564 34.7367267,42.2496394 34.7367267,41.5006158 C34.7365097,41.4440918 34.7331465,41.3881104 34.7263116,41.3332138 L34.7263116,41.3332138 Z M12.1327915,6.78070319 C12.1327915,4.5373211 13.9578314,2.71228128 16.2012135,2.71228128 L18.5332329,2.71228128 C20.776615,2.71228128 22.6016548,4.5373211 22.6016548,6.78070319 L22.6016548,7.65308134 L12.1327915,7.65308134 L12.1327915,6.78070319 L12.1327915,6.78070319 Z M2.80417133,40.1444752 L4.75723083,10.3654711 L9.42051027,10.3654711 L9.42051027,11.5755825 C8.45548059,12.0703026 7.79314151,13.0747146 7.79314151,14.2316653 C7.79314151,15.8768267 9.13148958,17.2151747 10.7766509,17.2151747 C12.4218122,17.2151747 13.7601603,15.8768267 13.7601603,14.2316653 C13.7601603,13.0747146 13.0978212,12.0703026 12.1327915,11.5755825 L12.1327915,10.3654711 L22.6016548,10.3654711 L22.6016548,11.5755825 C21.6365166,12.0703026 20.974286,13.0747146 20.974286,14.2316653 C20.974286,15.8768267 22.3126341,17.2151747 23.9577955,17.2151747 C25.6029568,17.2151747 26.9413049,15.8768267 26.9413049,14.2316653 C26.9413049,13.0747146 26.2789658,12.0703026 25.3139361,11.5755825 L25.3139361,10.3654711 L29.9772155,10.3654711 L31.930275,40.1444752 L2.80417133,40.1444752 L2.80417133,40.1444752 Z" id="Shape"></path>
                    </g>
                </g>
            </g>
        </g>
    </g>
</svg>