<?xml version="1.0" encoding="utf-8"?>
<!-- Generator: Adobe Illustrator 21.1.0, SVG Export Plug-In . SVG Version: 6.00 Build 0)  -->
<svg version="1.1" id="Layer_1" xmlns="http://www.w3.org/2000/svg" xmlns:xlink="http://www.w3.org/1999/xlink" x="0px" y="0px"
	 viewBox="0 0 360 360" style="enable-background:new 0 0 360 360;" xml:space="preserve">
<g>
	<polygon points="316.8,185.9 316.8,189.3 303.3,189.3 303.3,170.7 316.8,170.7 316.8,174.1 307,174.1 307,178.1 314.8,178.1 
		314.8,181.5 307,181.5 307,185.9 	"/>
	<polygon points="286.4,170.7 286.4,174.1 280.3,174.1 280.3,189.3 276.9,189.3 276.9,174.1 270.8,174.1 270.8,170.7 	"/>
	<polygon points="253.9,185.9 253.9,189.3 240.4,189.3 240.4,170.7 253.9,170.7 253.9,174.1 244.1,174.1 244.1,178.1 251.9,178.1 
		251.9,181.5 244.1,181.5 244.1,185.9 	"/>
	<polygon points="223.3,185.9 223.3,189.3 209.8,189.3 209.8,170.7 213.5,170.7 213.5,185.9 	"/>
	<path d="M185.1,170.7l7.8,18.6h-4l-1.7-4.6h-3.8h-3.8l-1.7,4.6h-4l7.8-18.6H185.1z M185.9,181.3l-2.5-6.8l-2.5,6.8h2.5H185.9z"/>
	<polygon points="156.7,170.7 156.7,189.3 153.3,189.3 153.3,181.5 144.4,181.5 144.4,189.3 140.9,189.3 140.9,170.7 144.4,170.7 
		144.4,178.1 153.3,178.1 153.3,170.7 	"/>
	<path d="M123.7,174.9c0.1,0.4,0.1,0.8,0.1,1.3c0,0.4,0,0.8-0.1,1.3c-0.1,0.6-0.3,1.2-0.6,1.7c-0.3,0.6-0.8,1.1-1.4,1.5
		c-0.5,0.4-1.1,0.6-1.6,0.8c-0.6,0.2-1.2,0.2-1.7,0.2c-1.8,0-3.6,0-5.4,0c0,2.6,0,5.2,0,7.7c-1.1,0-2.3,0-3.4,0c0-6.2,0-12.4,0-18.6
		c2.9,0,5.9,0,8.8,0c0.6,0,1.2,0,1.7,0.2c0.6,0.2,1.1,0.4,1.6,0.8c0.5,0.4,1,0.9,1.4,1.5C123.4,173.7,123.6,174.3,123.7,174.9z
		 M120.6,176.1c0-0.4-0.1-0.9-0.4-1.3c-0.1-0.2-0.3-0.4-0.6-0.5c-0.4-0.2-0.9-0.2-1.3-0.2c-1.8,0-3.6,0-5.4,0c0,1.3,0,2.7,0,4
		c1.8,0,3.6,0,5.4,0c0.4,0,0.9,0,1.3-0.2c0.2-0.1,0.4-0.3,0.6-0.5C120.5,177,120.6,176.6,120.6,176.1z"/>
	<polygon points="92.6,185.9 92.6,189.3 79.1,189.3 79.1,170.7 82.8,170.7 82.8,185.9 	"/>
	<path d="M54.4,170.7l7.8,18.6h-4l-1.7-4.6h-3.8h-3.8l-1.7,4.6h-4l7.8-18.6H54.4z M55.2,181.3l-2.5-6.8l-2.5,6.8h2.5H55.2z"/>
</g>
</svg>
